<svg xmlns="http://www.w3.org/2000/svg" xmlns:xlink="http://www.w3.org/1999/xlink" version="1.1" width="262.88236027169296" height="168.24370454770383" enable-background="new 0 0 425.2 340.16" xml:space="preserve"><rect id="backgroundrect" width="100%" height="100%" x="0" y="0" fill="none" stroke="none" class=""/>

<g class="currentLayer"><title>Layer 1</title><g id="svg_1" class="">
	<g id="svg_2">
		<g id="svg_3">
			<path fill="#00A6E2" d="M85.27006420898437,166.8097208251953 c45.172,0 81.779,-36.604 81.779,-81.77 c0,-45.169 -36.607,-81.779 -81.779,-81.779 c-45.167,0 -81.773,36.61 -81.773,81.779 C3.4970642089843693,130.2067208251953 40.10406420898437,166.8097208251953 85.27006420898437,166.8097208251953 " id="svg_4"/>
		</g>
	</g>
	<g id="svg_5">
		<path fill="#58595B" d="M99.01806420898438,121.39872082519531 v-32.973 c0,-6.533 -1.735,-10.31 -8.167,-10.31 c-7.248,0 -10.412,7.656000000000001 -10.412,14.291 v28.991 h-12.658 v-32.973 c0,-6.533 -1.735,-10.31 -8.167,-10.31 c-7.248,0 -10.514,7.656000000000001 -10.514,14.291 v28.991 h-12.658 v-53.082 h10.616 l1.021,7.043 c2.96,-4.9 8.064,-8.371 15.108,-8.371 c7.452,0 12.556000000000001,3.267 15.21,8.677 c3.164,-5.5120000000000005 8.881,-8.677 16.026,-8.677 c11.331,0 17.252,7.554 17.252,18.578 v35.831 H99.01806420898438 z" id="svg_6"/>
		<path fill="#58595B" d="M126.57606420898438,60.966720825195324 v-13.168 h13.678 v13.168 H126.57606420898438 zM126.98406420898436,121.39872082519531 v-53.082 h12.964 v53.082 H126.98406420898436 z" id="svg_7"/>
		<path fill="#58595B" d="M170.16306420898437,122.01172082519531 c-8.678,0 -14.496,-4.186 -14.496,-14.291 v-60.126 h12.863 v57.982 c0,3.062 0.7130000000000001,5.104 5.104,5.104 c1.123,0 1.4300000000000002,-0.10200000000000001 2.143,-0.10200000000000001 v10.718 C173.22506420898438,121.8067208251953 172.7150642089844,122.01172082519531 170.16306420898437,122.01172082519531 z" id="svg_8"/>
		<path fill="#58595B" d="M186.59406420898438,60.966720825195324 v-13.168 h13.68 v13.168 H186.59406420898438 zM187.0020642089844,121.39872082519531 v-53.082 h12.965 v53.082 H187.0020642089844 z" id="svg_9"/>
		<path fill="#58595B" d="M249.6800642089844,121.39872082519531 l-0.918,-6.941 c-2.553,5.206 -8.473,8.269 -15.211,8.269 c-11.33,0 -18.375,-7.656000000000001 -18.375,-18.987 v-35.422 h12.762 v32.563 c0,6.228 2.449,10.106 9.186,10.106 c2.9610000000000003,0 5.002,-1.123 6.533,-2.654 c3.062,-2.858 3.8810000000000002,-7.656000000000001 3.8810000000000002,-11.943 v-28.072 h12.76 v53.082 H249.6800642089844 z" id="svg_10"/>
	</g>
</g></g></svg>